<svg width="48" height="48" viewBox="0 0 48 48" fill="none" xmlns="http://www.w3.org/2000/svg">
<circle cx="24" cy="24" r="24" fill="#2C303D"/>
<path d="M15 24C15 20.2288 15 18.3431 16.1716 17.1716C17.3431 16 19.2288 16 23 16H25.5C28.7875 16 30.4312 16 31.5376 16.908C31.7401 17.0742 31.9258 17.2599 32.092 17.4624C33 18.5688 33 20.2125 33 23.5V23.5C33 26.7875 33 28.4312 32.092 29.5376C31.9258 29.7401 31.7401 29.9258 31.5376 30.092C30.4312 31 28.7875 31 25.5 31H21.3022C20.6676 31 20.3503 31 20.0474 31.0467C19.4125 31.1446 18.8106 31.3939 18.2924 31.7736C18.0452 31.9548 17.8208 32.1792 17.3721 32.6279V32.6279C16.8187 33.1813 16.542 33.458 16.3207 33.533C15.8459 33.6937 15.3255 33.4781 15.1035 33.0287C15 32.8193 15 32.428 15 31.6454V24Z" stroke="#FAFBFF" stroke-width="1.8" stroke-linejoin="round"/>
<circle cx="19.5" cy="23.5" r="0.75" stroke="#FAFBFF" stroke-width="1.5"/>
<circle cx="24" cy="23.5" r="0.75" stroke="#FAFBFF" stroke-width="1.5"/>
<circle cx="28.5" cy="23.5" r="0.75" stroke="#FAFBFF" stroke-width="1.5"/>
</svg>
