<svg width="50" height="50" viewBox="0 0 50 50" fill="none" xmlns="http://www.w3.org/2000/svg">
<circle cx="25" cy="25" r="24" fill="#2C303D" stroke="#545D69" stroke-width="2"/>
<path fill-rule="evenodd" clip-rule="evenodd" d="M14.5 22.9164C14.5 21.0296 16.0296 19.5 17.9164 19.5C18.8869 19.5 19.7742 18.9517 20.2082 18.0836L20.7 17.1C20.939 16.622 21.0585 16.383 21.2209 16.1945C21.4894 15.883 21.8473 15.6617 22.246 15.561C22.4872 15.5 22.7544 15.5 23.2889 15.5H26.7111C27.2456 15.5 27.5128 15.5 27.754 15.561C28.1527 15.6617 28.5106 15.883 28.7791 16.1945C28.9415 16.383 29.061 16.622 29.3 17.1L29.7918 18.0836C30.2258 18.9517 31.1131 19.5 32.0836 19.5C33.9704 19.5 35.5 21.0296 35.5 22.9164V28.1C35.5 30.3402 35.5 31.4603 35.064 32.316C34.6805 33.0686 34.0686 33.6805 33.316 34.064C32.4603 34.5 31.3402 34.5 29.1 34.5H20.9C18.6598 34.5 17.5397 34.5 16.684 34.064C15.9314 33.6805 15.3195 33.0686 14.936 32.316C14.5 31.4603 14.5 30.3402 14.5 28.1V22.9164ZM29 27C29 29.2091 27.2091 31 25 31C22.7909 31 21 29.2091 21 27C21 24.7909 22.7909 23 25 23C27.2091 23 29 24.7909 29 27ZM32 24.5C32.8284 24.5 33.5 23.8284 33.5 23C33.5 22.1716 32.8284 21.5 32 21.5C31.1716 21.5 30.5 22.1716 30.5 23C30.5 23.8284 31.1716 24.5 32 24.5Z" fill="#A7AABC"/>
</svg>
