<svg width="50" height="50" viewBox="0 0 50 50" fill="none" xmlns="http://www.w3.org/2000/svg">
<path d="M25 46.692C36.9802 46.692 46.692 36.9802 46.692 25C46.692 13.0199 36.9802 3.30801 25 3.30801C13.0199 3.30801 3.30801 13.0199 3.30801 25C3.30801 36.9802 13.0199 46.692 25 46.692Z" stroke="url(#paint0_angular)" stroke-width="6"/>
<path d="M14.8104 30.8768C14.3309 31.8271 14.2371 32.9258 14.5487 33.9436C14.8602 34.9613 15.5531 35.8193 16.4823 36.3383C17.4492 36.8836 18.5718 37.0184 19.6406 36.7193C20.7094 36.4203 21.599 35.7225 22.1426 34.7546C22.2538 34.5579 22.4028 34.3852 22.5809 34.2462C22.759 34.1072 22.9629 34.0048 23.1807 33.9447C23.625 33.8204 24.0908 33.8757 24.4887 34.0996C26.8214 35.4123 29.5293 35.7367 32.1126 35.0138C34.6959 34.2911 36.8423 32.6086 38.155 30.2759C38.679 29.3495 38.8254 28.2567 38.5635 27.2251C38.3017 26.1935 37.6519 25.3027 36.7496 24.7384C37.2083 23.8173 37.3216 22.777 37.0423 21.7789C36.7631 20.7808 36.1268 19.9517 35.2562 19.4011C35.7357 18.4508 35.8295 17.352 35.5179 16.3343C35.2064 15.3165 34.5135 14.4585 33.5843 13.9396C32.6177 13.3956 31.4947 13.2595 30.426 13.5585C29.3571 13.8576 28.4675 14.5554 27.924 15.5233C27.6987 15.9215 27.3319 16.2097 26.8876 16.3341C26.4432 16.4584 25.9774 16.4031 25.5779 16.1782C24.4305 15.53 23.1659 15.1156 21.8575 14.9589C20.5489 14.8022 19.2223 14.9064 17.9543 15.2653C16.6839 15.6162 15.4957 16.2157 14.4585 17.029C13.4213 17.8423 12.5557 18.8532 11.9119 20.0033C11.3876 20.9293 11.241 22.022 11.5028 23.0535C11.7646 24.085 12.4145 24.9756 13.317 25.5395C12.8586 26.4619 12.745 27.5009 13.0242 28.499C13.3035 29.497 13.9401 30.3275 14.8104 30.8768ZM14.3266 21.3622C14.7941 20.5309 15.4212 19.8001 16.1719 19.2118C16.9225 18.6235 17.7821 18.1892 18.701 17.934C19.619 17.6755 20.579 17.6008 21.526 17.7141C22.473 17.8274 23.3882 18.1265 24.2193 18.5942C24.7334 18.8837 25.2996 19.0688 25.8854 19.139C26.4711 19.2091 27.065 19.163 27.6329 19.0031C28.7417 18.6929 29.7313 17.9614 30.3373 16.8825C30.5252 16.5775 30.8239 16.357 31.1707 16.2672C31.5176 16.1775 31.8857 16.2254 32.198 16.401C32.5103 16.5766 32.7425 16.8662 32.846 17.2092C32.9495 17.5522 32.9163 17.9219 32.7533 18.241C32.286 19.0721 31.6591 19.8028 30.9086 20.391C30.1582 20.9793 29.2989 21.4135 28.3802 21.6688C27.462 21.9275 26.5018 22.0024 25.5545 21.8891C24.6074 21.7759 23.6918 21.4768 22.8605 21.0089C22.3464 20.7196 21.7803 20.5346 21.1946 20.4647C20.6088 20.3948 20.015 20.4412 19.4473 20.6014C18.8788 20.7589 18.3471 21.0272 17.8827 21.391C17.4183 21.7548 17.0303 22.2068 16.7412 22.721C16.6524 22.88 16.533 23.0197 16.3899 23.1324C16.2469 23.245 16.083 23.3283 15.9076 23.3773C15.7323 23.4264 15.549 23.4403 15.3682 23.4183C15.1875 23.3962 15.0129 23.3387 14.8545 23.2489C14.6958 23.1598 14.5563 23.0403 14.4439 22.8972C14.3314 22.7541 14.2483 22.5902 14.1993 22.415C14.1503 22.2398 14.1363 22.0566 14.1581 21.8759C14.18 21.6953 14.2372 21.5207 14.3266 21.3622ZM35.74 28.9157C35.2728 29.7473 34.6459 30.4784 33.8952 31.0669C33.1445 31.6555 32.285 32.0899 31.3659 32.3452C29.5739 32.8466 27.5924 32.6658 25.8476 31.6849C25.3336 31.3952 24.7675 31.2098 24.1816 31.1396C23.5958 31.0695 23.0018 31.1158 22.434 31.276C21.8655 31.4336 21.3338 31.702 20.8693 32.0657C20.4049 32.4295 20.017 32.8815 19.7279 33.3957C19.6391 33.5547 19.5197 33.6945 19.3766 33.8071C19.2336 33.9197 19.0697 34.003 18.8943 34.052C18.719 34.1011 18.5357 34.115 18.3549 34.093C18.1742 34.0709 17.9996 34.0134 17.8412 33.9236C17.6825 33.8345 17.543 33.715 17.4306 33.5719C17.3181 33.4288 17.235 33.265 17.186 33.0897C17.137 32.9145 17.123 32.7313 17.1448 32.5506C17.1666 32.37 17.2239 32.1954 17.3133 32.0369C17.7808 31.2056 18.4079 30.4748 19.1586 29.8865C19.9093 29.2982 20.7687 28.864 21.6877 28.6087C22.6057 28.3502 23.5658 28.2755 24.5127 28.3888C25.4597 28.5021 26.3749 28.8012 27.2061 29.2689C27.7202 29.5584 28.2863 29.7435 28.8721 29.8137C29.4579 29.8839 30.0517 29.8377 30.6196 29.6778C31.7285 29.3676 32.718 28.6361 33.324 27.5572C33.5119 27.2522 33.8106 27.0317 34.1574 26.9419C34.5043 26.8522 34.8723 26.9002 35.1846 27.0757C35.4969 27.2513 35.7292 27.5409 35.8327 27.8839C35.9362 28.2269 35.903 28.5967 35.74 28.9157ZM15.8199 26.6995C16.2874 25.8682 16.9145 25.1375 17.6652 24.5491C18.4159 23.9609 19.2754 23.5266 20.1944 23.2714C21.1124 23.0129 22.0724 22.9381 23.0194 23.0514C23.9663 23.1647 24.8816 23.4638 25.7127 23.9316C26.2268 24.2211 26.793 24.4062 27.3787 24.4763C27.9645 24.5465 28.5584 24.5003 29.1263 24.3405C30.2351 24.0303 31.2246 23.2987 31.8306 22.2199C32.0186 21.9148 32.3172 21.6943 32.6641 21.6046C33.0109 21.5148 33.379 21.5628 33.6913 21.7384C34.0036 21.914 34.2358 22.2036 34.3393 22.5466C34.4429 22.8895 34.4096 23.2593 34.2466 23.5783C33.7793 24.4095 33.1524 25.1402 32.4019 25.7284C31.6515 26.3166 30.7923 26.7509 29.8735 27.0061C28.9553 27.2649 27.9951 27.3398 27.0479 27.2265C26.1007 27.1133 25.1852 26.8141 24.3538 26.3463C23.8398 26.0569 23.2736 25.872 22.6879 25.8021C22.1022 25.7321 21.5084 25.7786 20.9407 25.9387C20.3722 26.0962 19.8404 26.3646 19.376 26.7284C18.9116 27.0922 18.5237 27.5441 18.2346 28.0584C18.1457 28.2173 18.0263 28.3571 17.8833 28.4697C17.7402 28.5824 17.5763 28.6656 17.401 28.7147C17.2256 28.7637 17.0423 28.7776 16.8616 28.7556C16.6809 28.7336 16.5063 28.676 16.3478 28.5863C16.1891 28.4972 16.0496 28.3777 15.9372 28.2346C15.8248 28.0915 15.7417 27.9276 15.6926 27.7524C15.6436 27.5771 15.6296 27.394 15.6515 27.2133C15.6733 27.0326 15.7305 26.8581 15.8199 26.6995Z" fill="url(#paint1_angular)"/>
<defs>
<radialGradient id="paint0_angular" cx="0" cy="0" r="1" gradientUnits="userSpaceOnUse" gradientTransform="translate(25 25) rotate(-90) scale(38.8332)">
<stop offset="0.37638" stop-color="#C055FF"/>
<stop offset="0.999808" stop-color="#0390FF"/>
</radialGradient>
<radialGradient id="paint1_angular" cx="0" cy="0" r="1" gradientUnits="userSpaceOnUse" gradientTransform="translate(25.0334 25.1396) rotate(-105.631) scale(11.4165 12.4704)">
<stop offset="0.208333" stop-color="#C055FF"/>
<stop offset="0.567708" stop-color="#DC79BB"/>
<stop offset="1" stop-color="#FD7A67"/>
</radialGradient>
</defs>
</svg>
