<svg width="389" height="309" viewBox="0 0 389 309" fill="none" xmlns="http://www.w3.org/2000/svg">
<g clip-path="url(#clip0)">
<path d="M117.794 256.073C117.794 262.933 116.446 269.726 113.828 276.064C111.209 282.401 107.371 288.16 102.533 293.011C97.6952 297.861 91.9514 301.709 85.6301 304.334C79.3088 306.959 72.5336 308.311 65.6914 308.311C58.8493 308.311 52.0741 306.959 45.7528 304.334C39.4314 301.709 33.6877 297.861 28.8496 293.011C24.0114 288.16 20.1736 282.401 17.5552 276.064C14.9368 269.726 13.5892 262.933 13.5892 256.073C13.5892 255.719 13.5892 255.366 13.5892 255.015C13.8826 241.266 19.5721 228.187 29.4229 218.617C39.2738 209.048 52.4913 203.758 66.2073 203.898C79.9232 204.037 93.0312 209.594 102.687 219.362C112.342 229.129 117.766 242.321 117.782 256.073H117.794Z" fill="#A7AABC"/>
<path d="M60.3694 194.768C60.3694 194.768 64.8543 223.545 101.11 226.126" stroke="white" stroke-width="2" stroke-miterlimit="10"/>
<path d="M76.2897 250.6C81.3172 248.446 84.2003 243.902 82.7292 240.451C81.2581 236.999 75.9899 235.948 70.9624 238.102C65.9348 240.256 63.0518 244.8 64.5229 248.251C65.994 251.703 71.2622 252.754 76.2897 250.6Z" fill="white"/>
<path d="M71.0984 291.096C71.2224 288.851 69.2392 286.916 66.6688 286.773C64.0984 286.63 61.9141 288.334 61.7901 290.579C61.6661 292.824 63.6493 294.76 66.2197 294.902C68.7902 295.045 70.9744 293.341 71.0984 291.096Z" fill="white"/>
<path d="M19.261 280.126C33.6814 282.432 49.6834 283.01 53.0889 275.198C59.5382 260.393 28.9663 229.001 31.7439 225.206C34.5216 221.411 45.1806 224.783 47.3842 220.41C48.6938 217.808 47.3842 213.021 45.2255 208.02" stroke="white" stroke-width="2" stroke-miterlimit="10"/>
<path d="M142.673 254.91C142.673 254.91 96.652 250.536 94.6936 257.857C93.3242 262.971 106.653 272.953 106.653 272.953C106.653 272.953 79.6813 265.087 75.301 273.331C72.6101 278.427 90.7529 289.413 101.098 295.151" stroke="white" stroke-width="2" stroke-linejoin="round"/>
<path d="M24.7744 255.351C23.7399 257.248 19.3268 256.984 13.6011 255.015C13.6788 251.167 14.1801 247.34 15.0961 243.603C21.9071 248.225 26.0392 253.039 24.7744 255.351Z" fill="white"/>
<path d="M118.356 120.321C118.356 120.321 121.166 118.648 127.027 123.438C131.93 127.458 134.161 132.905 134.161 132.905" stroke="#A7AABC" stroke-width="3" stroke-miterlimit="10"/>
<path d="M355.05 296.323L362.728 308.401H347.371L355.05 296.323Z" fill="#FCCE44"/>
<path d="M308.177 15.8757L350.197 57.5883L290.482 72.4447L308.177 15.8757Z" fill="#A7AABC"/>
<path d="M44.9115 74.0544C44.9115 74.0544 57.0805 79.2464 59.8611 87.9457C62.6417 96.6449 53.4896 106.028 53.4896 106.028L24.3738 99.9244L44.9115 74.0544Z" fill="black"/>
<path d="M13.5862 147.132C11.8007 143.24 10.8002 139.032 10.6421 134.751C10.4839 130.47 11.1713 126.2 12.6647 122.187C14.1582 118.173 16.4281 114.495 19.3442 111.364C22.2602 108.232 25.7648 105.71 29.6564 103.941C33.5481 102.173 37.75 101.193 42.0207 101.058C46.2914 100.923 50.5466 101.635 54.5416 103.155C58.5367 104.674 62.1928 106.97 65.2998 109.911C68.4068 112.852 70.9033 116.379 72.646 120.291L13.5862 147.132Z" fill="#C64F4B"/>
<path d="M308.135 122.362C303.445 126.415 298.003 129.499 292.121 131.437C286.239 133.375 280.034 134.13 273.86 133.657C267.687 133.184 261.667 131.494 256.148 128.682C250.628 125.871 245.716 121.994 241.694 117.274C237.673 112.554 234.621 107.085 232.714 101.179C230.806 95.2735 230.081 89.0484 230.58 82.8612C231.079 76.6739 232.792 70.6464 235.62 65.1246C238.449 59.6028 242.337 54.6956 247.063 50.6846L308.135 122.362Z" fill="#C64F4B"/>
<path d="M31.6064 109.985L25.6266 87.8018C25.6266 87.8018 17.6764 85.7664 17.802 80.3496C17.9275 74.9328 23.6592 76.0359 23.6592 76.0359C23.6592 76.0359 24.5562 68.4458 31.9891 66.1826C39.4221 63.9193 45.5185 71.6863 46.3407 77.8375C47.5367 86.9205 44.7262 92.0765 35.3946 92.0885L39.2815 104.151" fill="#FCCE44"/>
<path d="M41.1741 78.8597L43.5541 82.5289" stroke="#A7AABC" stroke-miterlimit="10"/>
<path d="M29.956 103.875C37.5115 99.5797 26.8614 74.0995 26.8614 74.0995C36.0375 76.9772 44.6185 72.7775 44.6185 72.7775C44.6185 72.7775 39.416 60.6069 26.0332 65.3103C12.6503 70.0136 11.6457 79.5103 11.6457 79.5103C11.6457 79.5103 -2.21253 86.4439 0.307965 98.3956C2.82846 110.347 17.3266 115.278 17.3266 115.278C17.3266 115.278 23.9492 107.287 29.956 103.875Z" fill="black"/>
<path d="M43.1475 80.1067C43.7221 80.1067 44.188 79.3941 44.188 78.515C44.188 77.6359 43.7221 76.9232 43.1475 76.9232C42.5728 76.9232 42.107 77.6359 42.107 78.515C42.107 79.3941 42.5728 80.1067 43.1475 80.1067Z" fill="#A7AABC"/>
<path d="M38.646 80.3656C39.2206 80.3633 39.6836 79.6487 39.6801 78.7696C39.6766 77.8906 39.2079 77.1798 38.6333 77.1821C38.0586 77.1844 37.5956 77.8989 37.5991 78.778C37.6027 79.6571 38.0714 80.3679 38.646 80.3656Z" fill="#A7AABC"/>
<path d="M171.765 258.963L122.087 287.74L84.4382 207.319C78.457 205.009 72.1011 203.828 65.6914 203.836C62.3703 204.303 59.0149 204.479 55.6633 204.36C44.2567 203.806 25.1213 198.641 26.7777 175.397C28.4341 152.153 91.91 109.505 103.502 109.985C115.094 110.464 187.381 184.528 187.381 184.528C187.381 184.528 203.413 175.142 210.036 176.065L167.166 225.203L141.701 201.8C148.647 227.11 153.018 259.269 153.018 259.269C153.018 259.269 165.324 257.488 171.765 258.963Z" fill="#4A90F9"/>
<path d="M244.994 308.4C253.43 308.4 260.269 301.544 260.269 293.085C260.269 284.627 253.43 277.77 244.994 277.77C236.557 277.77 229.718 284.627 229.718 293.085C229.718 301.544 236.557 308.4 244.994 308.4Z" fill="#C64F4B"/>
<path d="M268.004 271.76C277.546 265.588 289.121 263.412 300.245 265.7C311.369 267.988 321.155 274.556 327.503 283.996L291.648 307.708L268.004 271.76Z" fill="white"/>
<path d="M291.49 265.258C298.454 265.246 305.315 266.935 311.482 270.177C317.649 273.42 322.935 278.12 326.885 283.871L291.783 307.088L268.629 271.895C275.469 267.558 283.397 265.256 291.49 265.258ZM291.49 264.359C282.916 264.357 274.531 266.886 267.382 271.631L291.529 308.332L328.137 284.122C324.142 278.041 318.7 273.05 312.303 269.6C305.906 266.15 298.754 264.349 291.49 264.359Z" fill="#A7AABC"/>
<path d="M319.688 308.4C324.377 308.4 328.179 304.589 328.179 299.887C328.179 295.185 324.377 291.374 319.688 291.374C314.998 291.374 311.196 295.185 311.196 299.887C311.196 304.589 314.998 308.4 319.688 308.4Z" fill="#A7AABC"/>
<path d="M209.551 308.4C212.879 308.4 215.576 305.696 215.576 302.36C215.576 299.024 212.879 296.32 209.551 296.32C206.224 296.32 203.527 299.024 203.527 302.36C203.527 305.696 206.224 308.4 209.551 308.4Z" fill="#0083C8"/>
<path d="M280.221 178.143C279.698 178.143 279.187 177.987 278.752 177.696C278.317 177.404 277.979 176.99 277.779 176.506C277.579 176.022 277.527 175.489 277.629 174.975C277.731 174.46 277.983 173.988 278.353 173.618C278.723 173.247 279.194 172.995 279.707 172.893C280.22 172.791 280.752 172.844 281.234 173.045C281.717 173.246 282.13 173.586 282.42 174.023C282.71 174.459 282.865 174.971 282.864 175.496C282.863 176.198 282.584 176.871 282.089 177.367C281.593 177.864 280.921 178.143 280.221 178.143Z" fill="white"/>
<path d="M280.221 173.295C280.655 173.295 281.08 173.423 281.441 173.665C281.802 173.906 282.084 174.25 282.251 174.652C282.417 175.054 282.461 175.496 282.377 175.923C282.292 176.35 282.084 176.742 281.777 177.05C281.47 177.359 281.079 177.568 280.653 177.654C280.227 177.739 279.786 177.695 279.385 177.529C278.984 177.362 278.641 177.08 278.399 176.718C278.158 176.357 278.029 175.931 278.029 175.496C278.029 174.913 278.26 174.353 278.671 173.941C279.082 173.528 279.639 173.296 280.221 173.295ZM280.221 172.396C279.609 172.396 279.012 172.578 278.503 172.918C277.995 173.259 277.599 173.743 277.365 174.31C277.131 174.876 277.069 175.499 277.189 176.1C277.308 176.702 277.602 177.254 278.035 177.687C278.467 178.121 279.018 178.416 279.618 178.536C280.217 178.655 280.839 178.594 281.404 178.359C281.969 178.125 282.452 177.727 282.791 177.218C283.131 176.708 283.312 176.109 283.312 175.496C283.312 174.674 282.987 173.885 282.407 173.304C281.827 172.723 281.041 172.396 280.221 172.396Z" fill="#A7AABC"/>
<path d="M280.221 163.556C288.453 163.556 295.126 156.866 295.126 148.613C295.126 140.36 288.453 133.669 280.221 133.669C271.989 133.669 265.316 140.36 265.316 148.613C265.316 156.866 271.989 163.556 280.221 163.556Z" fill="#0083C8"/>
<path d="M311.501 120.099C317.175 120.099 321.775 115.487 321.775 109.799C321.775 104.11 317.175 99.4987 311.501 99.4987C305.828 99.4987 301.228 104.11 301.228 109.799C301.228 115.487 305.828 120.099 311.501 120.099Z" fill="white"/>
<path d="M311.501 99.9484C313.445 99.9484 315.344 100.526 316.96 101.608C318.575 102.691 319.835 104.229 320.578 106.029C321.322 107.829 321.517 109.81 321.137 111.72C320.758 113.631 319.823 115.386 318.449 116.764C317.075 118.142 315.324 119.08 313.418 119.46C311.512 119.84 309.537 119.645 307.742 118.899C305.946 118.154 304.412 116.891 303.332 115.271C302.253 113.651 301.677 111.747 301.677 109.799C301.68 107.187 302.716 104.684 304.558 102.837C306.399 100.99 308.897 99.9515 311.501 99.9484ZM311.501 99.0491C309.381 99.0497 307.308 99.6806 305.545 100.862C303.783 102.044 302.409 103.723 301.598 105.687C300.787 107.651 300.575 109.813 300.989 111.898C301.403 113.983 302.424 115.898 303.924 117.401C305.424 118.904 307.334 119.928 309.414 120.342C311.493 120.757 313.649 120.544 315.608 119.73C317.567 118.916 319.241 117.538 320.419 115.771C321.597 114.003 322.226 111.925 322.226 109.799C322.226 106.948 321.097 104.214 319.086 102.198C317.075 100.182 314.348 99.0491 311.504 99.0491H311.501Z" fill="#A7AABC"/>
<path d="M329.746 90.7725C337.355 90.7725 343.523 84.5881 343.523 76.9592C343.523 69.3304 337.355 63.1459 329.746 63.1459C322.137 63.1459 315.968 69.3304 315.968 76.9592C315.968 84.5881 322.137 90.7725 329.746 90.7725Z" fill="#FCCE44"/>
<path d="M310.395 81.4648C313.473 81.4648 315.968 78.9631 315.968 75.8771C315.968 72.7911 313.473 70.2894 310.395 70.2894C307.317 70.2894 304.822 72.7911 304.822 75.8771C304.822 78.9631 307.317 81.4648 310.395 81.4648Z" fill="#C64F4B"/>
<path d="M225.583 38.2983C229.837 38.2983 233.285 34.841 233.285 30.5762C233.285 26.3115 229.837 22.8542 225.583 22.8542C221.329 22.8542 217.881 26.3115 217.881 30.5762C217.881 34.841 221.329 38.2983 225.583 38.2983Z" fill="#FCCE44"/>
<path d="M229.102 48.7729L207.773 53.5449L212.533 74.9289L233.861 70.1569L229.102 48.7729Z" fill="#0083C8"/>
<path d="M334.341 95.5628L224.985 38.8888" stroke="#A7AABC" stroke-width="4" stroke-miterlimit="10"/>
<path d="M0 308.4H389" stroke="#A7AABC" stroke-width="3" stroke-miterlimit="10"/>
<path d="M19.7843 140.102L41.9097 150.924C41.9097 150.924 69.396 124.029 90.6273 114.694C90.6273 114.694 98.0274 111.349 102.261 111.049C106.495 110.749 98.7988 107.841 90.3612 109.634C67.1176 114.568 43.5661 126.637 43.5661 126.637C43.5661 126.637 28.8138 116.798 19.1833 117.536" stroke="#A7AABC" stroke-width="3" stroke-miterlimit="10"/>
<path d="M88.364 118.675C88.364 118.675 94.3139 120.5 97.3337 120.309C100.972 120.075 91.4047 115.887 91.4047 115.887C91.4047 115.887 99.7765 118.405 104.342 118.501C108.875 118.597 96.8673 113.252 96.8673 113.252C96.8673 113.252 105.239 114.436 107.727 114.577C111.706 114.799 103.956 110.746 103.956 110.746" stroke="white" stroke-linejoin="bevel"/>
<path d="M119.534 120.213C119.534 120.213 118.039 122.884 119.02 124.79C120 126.697 121.965 122.023 123.436 122.824C124.907 123.624 121.779 131.925 122.27 134.874C122.76 137.824 127.544 126.328 127.544 126.328C127.544 126.328 124.853 138.319 126.073 139.548C127.293 140.777 131.236 129.655 131.236 129.655C131.236 129.655 130.058 137.081 131.039 137.818C132.02 138.555 134.161 132.632 134.161 132.632" stroke="white" stroke-linejoin="bevel"/>
<path d="M99.2951 168.454C99.2951 168.454 83.5891 194.75 68.3136 201.869C60.2408 205.625 45.6351 204.037 45.6351 204.037" stroke="white" stroke-miterlimit="10"/>
<path d="M99.2951 168.454L105.099 167.891C112.658 167.155 120.232 169.145 126.46 173.504C132.688 177.863 137.162 184.306 139.079 191.674L141.976 202.822" stroke="white" stroke-miterlimit="10"/>
<path d="M294.617 154.5L381.624 283.61C388.74 294.165 381.196 308.4 368.489 308.4H191.941C179.236 308.4 171.693 294.165 178.806 283.61L265.812 154.5L178.806 25.3933C171.693 14.8385 179.236 0.599548 191.941 0.599548H368.501C381.208 0.599548 388.752 14.8385 381.636 25.3933L294.617 154.5Z" stroke="#A7AABC" stroke-width="2" stroke-miterlimit="10"/>
<path d="M280.224 187.432H280.221C274.552 187.432 269.956 192.04 269.956 197.723V217.724C269.956 223.407 274.552 228.015 280.221 228.015H280.224C285.893 228.015 290.488 223.407 290.488 217.724V197.723C290.488 192.04 285.893 187.432 280.224 187.432Z" fill="#A7AABC"/>
</g>
<defs>
<clipPath id="clip0">
<rect width="389" height="309" fill="white"/>
</clipPath>
</defs>
</svg>
